<svg id="Chat" xmlns="http://www.w3.org/2000/svg" width="25" height="24.962" viewBox="0 0 25 24.962">
  <path id="Fill_1" data-name="Fill 1" d="M12.525,0A12.5,12.5,0,0,0,0,12.5a13.2,13.2,0,0,0,1.688,6.237,1.307,1.307,0,0,1,.087,1.125l-.837,2.8a.78.78,0,0,0,1.025.975l2.525-.75a2.13,2.13,0,0,1,1.864.45A12.483,12.483,0,1,0,12.525,0" fill="#f07904" opacity="0.4"/>
  <path id="Combined_Shape" data-name="Combined Shape" d="M11.526,1.6a1.6,1.6,0,1,1,1.6,1.6A1.595,1.595,0,0,1,11.526,1.6ZM5.763,1.588A1.6,1.6,0,1,1,7.363,3.2,1.615,1.615,0,0,1,5.763,1.588ZM0,1.6a1.6,1.6,0,0,1,3.2,0A1.612,1.612,0,0,1,1.6,3.2,1.611,1.611,0,0,1,0,1.6Z" transform="translate(5.113 10.912)" fill="#f07904"/>
</svg>
