<svg id="Iconly_Bulk_3_User" data-name="Iconly/Bulk/3 User" xmlns="http://www.w3.org/2000/svg" width="30.25" height="21" viewBox="0 0 30.25 21">
  <g id="_3_User" data-name="3 User">
    <path id="Fill_1" data-name="Fill 1" d="M8.746,0C4,0,0,.775,0,3.767S4.028,7.508,8.746,7.508c4.744,0,8.746-.775,8.746-3.767S13.464,0,8.746,0" transform="translate(6.309 13.492)" fill="#726d61"/>
    <path id="Fill_3" data-name="Fill 3" d="M5.788,11.642a5.785,5.785,0,0,0,5.788-5.821A5.788,5.788,0,1,0,0,5.821a5.785,5.785,0,0,0,5.788,5.821" transform="translate(9.267)" fill="#726d61" opacity="0.4"/>
    <path id="Fill_6" data-name="Fill 6" d="M5.81,6.2A4.915,4.915,0,0,0,1.1,0,4.932,4.932,0,0,0,.127.1.187.187,0,0,0,.013.168.142.142,0,0,0,.037.319,7.985,7.985,0,0,1,1.5,4.954,7.923,7.923,0,0,1,.151,9.411.218.218,0,0,0,.3,9.746a4.513,4.513,0,0,0,.665.064A4.83,4.83,0,0,0,5.81,6.2" transform="translate(21.811 0.972)" fill="#726d61" opacity="0.4"/>
    <path id="Fill_8" data-name="Fill 8" d="M7.435,2.186A3.788,3.788,0,0,0,4.5.393,21.389,21.389,0,0,0,.045,0,.051.051,0,0,0,0,.038.063.063,0,0,0,.04.1C.874.518,4.1,2.322,3.691,6.128a.249.249,0,0,0,.278.282C4.762,6.3,6.8,5.855,7.435,4.482a2.643,2.643,0,0,0,0-2.3" transform="translate(22.553 11.687)" fill="#726d61"/>
    <path id="Fill_11" data-name="Fill 11" d="M5.847.1A4.832,4.832,0,0,0,4.872,0,4.913,4.913,0,0,0,.165,6.2,4.828,4.828,0,0,0,5.011,9.811a4.67,4.67,0,0,0,.665-.064.218.218,0,0,0,.147-.336A8.032,8.032,0,0,1,5.938.319.142.142,0,0,0,5.96.168.178.178,0,0,0,5.847.1" transform="translate(2.465 0.972)" fill="#726d61" opacity="0.4"/>
    <path id="Fill_13" data-name="Fill 13" d="M3.192.392A3.786,3.786,0,0,0,.263,2.185a2.638,2.638,0,0,0,0,2.3C.9,5.854,2.936,6.3,3.729,6.409a.248.248,0,0,0,.277-.282C3.6,2.323,6.823.518,7.658.1A.065.065,0,0,0,7.7.037.046.046,0,0,0,7.653,0,21.336,21.336,0,0,0,3.192.392" transform="translate(0 11.688)" fill="#726d61"/>
  </g>
</svg>
