<svg id="Checkmark_" data-name="Checkmark!" xmlns="http://www.w3.org/2000/svg" width="49.872" height="49.565" viewBox="0 0 49.872 49.565">
  <path id="Fill_292" data-name="Fill 292" d="M28,46.27h0a20.607,20.607,0,0,1-5.823-.857,24.135,24.135,0,0,1-5.727-2.567,28.392,28.392,0,0,1-9.959-10.38A24.148,24.148,0,0,1,3.4,18.5a3.322,3.322,0,0,1-1.705.62A1.406,1.406,0,0,1,.43,18.365a5.5,5.5,0,0,1,.142-4.548A34.525,34.525,0,0,1,4.306,8.667c.242-.294.491-.6.73-.891a20.79,20.79,0,0,1,7.1-5.842A20.633,20.633,0,0,1,21.2,0l.366,0A38.159,38.159,0,0,1,36.068,2.831a26.646,26.646,0,0,1,6.384,3.75,19.278,19.278,0,0,1,7.168,12.464,23.392,23.392,0,0,1-.09,7.408,24.874,24.874,0,0,1-6.546,13.134A22.687,22.687,0,0,1,35.889,44.6,19.454,19.454,0,0,1,28,46.27ZM21.336,5.711a14.454,14.454,0,0,0-5.4.894,9.651,9.651,0,0,0-4.383,3.472,17.526,17.526,0,0,0-2.727,6.056,18.333,18.333,0,0,0-.357,6.638A20.1,20.1,0,0,0,10.59,29.2a26.475,26.475,0,0,0,4.24,5.953,22.988,22.988,0,0,0,5.719,4.462,15.591,15.591,0,0,0,6.557,1.961c.268.015.539.022.806.022A16.061,16.061,0,0,0,40.04,35.662a20.948,20.948,0,0,0,3.613-5.994A19.073,19.073,0,0,0,45,22.932a14.133,14.133,0,0,0-6.059-12.09C35.7,8.474,31.122,6.805,25.686,6.016A36.427,36.427,0,0,0,21.336,5.711Z" transform="translate(0 3.295)" fill="#fee89e"/>
  <path id="Fill_294" data-name="Fill 294" d="M31.072.669A61.153,61.153,0,0,0,19.313,12.452c-3.263,4.212-5.42,9.471-9.34,13.143-1.979-2.156-4.3-7.979-8.247-5.669C-1.551,21.843.559,25.14,2.155,27.3c4.121,5.589,8.7,7.839,13.982,2.316,4.8-5.015,7.526-11.705,12.014-17.009,1.969-2.327,5.01-4.637,6.578-7.206,1.421-2.329-.336-7.177-3.656-4.737" transform="translate(10.74)" fill="#fee89e"/>
</svg>
