<svg id="Filter" xmlns="http://www.w3.org/2000/svg" width="29.167" height="25.926" viewBox="0 0 29.167 25.926">
  <path id="Fill_1" data-name="Fill 1" d="M11.788,0H2.2A2.181,2.181,0,0,0,0,2.16a2.182,2.182,0,0,0,2.2,2.16h9.589a2.182,2.182,0,0,0,2.2-2.16A2.181,2.181,0,0,0,11.788,0" transform="translate(0 18.897)" fill="#f07904" opacity="0.4"/>
  <path id="Fill_4" data-name="Fill 4" d="M13.985,2.159A2.18,2.18,0,0,0,11.788,0H2.2A2.18,2.18,0,0,0,0,2.159a2.181,2.181,0,0,0,2.2,2.16h9.589a2.18,2.18,0,0,0,2.2-2.16" transform="translate(15.181 2.768)" fill="#f07904" opacity="0.4"/>
  <path id="Fill_6" data-name="Fill 6" d="M10.03,4.927A4.972,4.972,0,0,1,5.015,9.856,4.973,4.973,0,0,1,0,4.927,4.972,4.972,0,0,1,5.015,0,4.971,4.971,0,0,1,10.03,4.927" transform="translate(0 0)" fill="#f07904"/>
  <path id="Fill_9" data-name="Fill 9" d="M10.03,4.929A4.971,4.971,0,0,1,5.015,9.856,4.972,4.972,0,0,1,0,4.929,4.973,4.973,0,0,1,5.015,0,4.972,4.972,0,0,1,10.03,4.929" transform="translate(19.137 16.07)" fill="#f07904"/>
</svg>
