<svg xmlns="http://www.w3.org/2000/svg" width="34.099" height="34.144" viewBox="0 0 34.099 34.144">
  <g id="Group_1" data-name="Group 1" transform="translate(-170.901 -333)">
    <g id="Path_4042" data-name="Path 4042" transform="translate(171 333)" fill="none">
      <path d="M17,0A17,17,0,1,1,0,17,17,17,0,0,1,17,0Z" stroke="none"/>
      <path d="M 17 6 C 10.93457794189453 6 6 10.93457794189453 6 17 C 6 23.06542205810547 10.93457794189453 28 17 28 C 23.06542205810547 28 28 23.06542205810547 28 17 C 28 10.93457794189453 23.06542205810547 6 17 6 M 17 0 C 26.38884353637695 0 34 7.611156463623047 34 17 C 34 26.38884353637695 26.38884353637695 34 17 34 C 7.611156463623047 34 0 26.38884353637695 0 17 C 0 7.611156463623047 7.611156463623047 0 17 0 Z" stroke="none" fill="#fee89e"/>
    </g>
    <path id="Path_4041" data-name="Path 4041" d="M-271.015-2246.757s.371,13.039,13.922,13.748" transform="translate(445 2597)" fill="none" stroke="#f07904" stroke-linecap="round" stroke-width="6"/>
  </g>
</svg>
