<svg id="Iconly_Bulk_More_Circle" data-name="Iconly/Bulk/More Circle" xmlns="http://www.w3.org/2000/svg" width="24" height="24" viewBox="0 0 24 24">
  <path id="Fill_1" data-name="Fill 1" d="M20,10A10,10,0,1,1,10,0,10,10,0,0,1,20,10" transform="translate(2 2)" fill="#f07904" opacity="0.4"/>
  <path id="Combined_Shape" data-name="Combined Shape" d="M8.959,1.2a1.2,1.2,0,1,1,1.2,1.2A1.2,1.2,0,0,1,8.959,1.2Zm-4.479,0a1.2,1.2,0,1,1,1.2,1.2A1.2,1.2,0,0,1,4.479,1.2ZM0,1.2a1.2,1.2,0,1,1,1.2,1.2A1.2,1.2,0,0,1,0,1.2Z" transform="translate(6.323 10.804)" fill="#f07904"/>
</svg>
