<svg xmlns="http://www.w3.org/2000/svg" width="130.769" height="202.481" viewBox="0 0 130.769 202.481">
  <g id="Plant_Left" data-name="Plant Left" opacity="0.701">
    <path id="Leaf" d="M30.57,10.989C32.54,8.18,36.2,1.047,38.967.044c1.786-.646,1.265,6.04,1.287,7.315a106.87,106.87,0,0,1-.987,14.725C38.2,30.9,34.705,38.761,29.914,46.268c-2.466,3.863-5.358,7.773-9.363,10.184-1.844,1.11-4.062,1.3-5.883,2.252-2.121,1.113-.966.213-1.921,2.423-1.327,3.068-1.752,7.026-2.366,10.3C7.561,86.455.735,165.9,1.918,181.182c.105,1.355-1.784,1.679-1.878.025-.5-8.77,3.836-69.5,6.025-89.366s4.4-37.408,6.624-44.28C15.382,39.225,20.248,29.2,24.3,21.425A92.445,92.445,0,0,1,30.57,10.989Z" transform="translate(52.964 0)" fill="#fee89e"/>
    <path id="Leaf-2" data-name="Leaf" d="M.9.014c2.868.561,7.555,7.049,9.919,9.521a92.591,92.591,0,0,1,7.762,9.349,158.131,158.131,0,0,1,13.733,22.4A208.2,208.2,0,0,1,47.589,81.048a164.032,164.032,0,0,1,4.636,26.082c.165,1.651,1.9,14.384-.6,14.727-2.244.309-1.551-9.668-1.659-11.025A176.255,176.255,0,0,0,39.98,66.194c-1.111-3.144-2.142-6.994-3.919-9.823-1.279-2.038-.009-1.327-2.257-2.1-1.93-.663-4.129-.5-6.106-1.312-4.294-1.761-7.732-5.179-10.745-8.617C11.1,37.661,6.456,30.432,4.037,21.87A108.2,108.2,0,0,1,.777,7.453C.6,6.188-.951-.347.9.014Z" transform="translate(0 67.962)" fill="#fee89e"/>
    <path id="Leaf-3" data-name="Leaf" d="M77.264,1.822c.167-.24,1.252-1.913.705-1.806C79.082-.2,76.44,1.86,79.211.6c-1.316,1.243-.556,2.857-.539,4.53a40.569,40.569,0,0,1-.937,8.067,55.318,55.318,0,0,1-3.76,12.192A54.635,54.635,0,0,1,56.019,47.42c-3.791,2.628-7.506,3.523-11.83,4.733-2.731.764-2.947,2.177-4.4,4.827C36.775,62.5,33.81,68,31.149,73.7c-3.178,6.813-6.263,13.634-9.173,20.567C12.172,117.625,4.193,141.82,0,166.859c-.1-14.756,3.311-29.953,7.617-44.017a262.71,262.71,0,0,1,11.575-29.9c1.055-2.369,2.655-5.416,3.1-8.031.314-1.832-.646-3.595-1.085-5.525a57.813,57.813,0,0,1-.086-23.5c1.658-8.333,6.453-12.2,14.564-13.381,2.966-.432,6.737-.274,9.457-1.538,2.964-1.377,4.186-5.9,5.871-8.811A119.832,119.832,0,0,1,67.1,10.286a52.161,52.161,0,0,1,5.5-5.06C73.827,4.243,76.426,3.033,77.264,1.822Z" transform="translate(51.558 25.779)" fill="#fee89e"/>
    <path id="Base" d="M.816,2.685A2.344,2.344,0,0,1,3.134,0H31.921a2.344,2.344,0,0,1,2.318,2.685L32.015,17.772a9.374,9.374,0,0,1-9.274,8.006H12.315a9.374,9.374,0,0,1-9.274-8.006Z" transform="translate(34.733 176.702)" fill="#fee89e"/>
  </g>
</svg>
