<svg xmlns="http://www.w3.org/2000/svg" width="445.106" height="650.957" viewBox="0 0 445.106 650.957">
  <g id="Scene_Whiteboard" data-name="Scene/Whiteboard" transform="translate(-57.552 0)" opacity="0.803">
    <path id="Leaf_Bottom" data-name="Leaf Bottom" d="M193,260a46.774,46.774,0,0,1-1,6A17.922,17.922,0,0,0,193,260Zm-10.831-47.012c-5.818-12.326-14.116-22.979-23.677-32.458,1.911-6.943,20.49-17.785,8.743-23.526-6.238-3.035-12.155,2.853-13.172,8.813-.7,4.1.956,9.109,2.633,12.961q-4.5-4.328-9.309-8.347c-4.416-3.7-8.927-7.286-13.477-10.821,6.819-7.114,12.6-26.731,2.816-29.377-14.443-3.894-6.229,22.02-4.981,26.893a.772.772,0,0,0,.649-.285c-.056.455-.123.942-.211,1.435-8.7-6.726-17.527-13.3-26.086-20.21.708-.583,1.77-2.724,2.632-3.88a42.082,42.082,0,0,0,5.1-8.312c2.052-4.734,3.879-12.21-2.344-14.605-6.768-2.611-9.474,5.878-9.26,10.847.148,3.435,1.255,6.649,1.918,9.99.208,1.042-.131,5.8,1.193,3.695a10.144,10.144,0,0,0,.044,1.682q-2.3-1.87-4.581-3.779a1.777,1.777,0,0,0,.1-.578,1.718,1.718,0,0,0-2.542-1.488q-3.006-2.572-5.947-5.23c-4.145-3.764-8.351-7.638-12.536-11.6.822-.784.427-1.79,1.19-2.616s2.322-1.341,3.228-2.119a22.871,22.871,0,0,0,5.4-7.423c2.125-4.459,4.688-13.714-2.292-15.421-7.2-1.762-10.332,7.182-10.5,12.68a139.867,139.867,0,0,0,2.051,14.018c-7.744-7.367-15.382-15.03-22.35-22.869,1.982-.122,7.39-4.478,8.468-5.647,2.631-2.849,6.725-9.053,1.7-11.959-4.468-2.578-9.583,1.763-11.225,5.806a55.526,55.526,0,0,0-.965,9.49c-2.888-3.328-5.653-6.682-8.238-10.057q-2.587-3.366-4.874-6.922a3.235,3.235,0,0,0,.9-.988c7.144-1.6,15.745-13.329,7.073-16.8-4.128-1.65-8.3,2.42-10.109,5.668a41.933,41.933,0,0,0-1.256,6.512A135.132,135.132,0,0,1,27.287,41.24a1.576,1.576,0,0,0,1.152-1.525c3.395-2.178,6.071-3.984,8.313-7.949,1.393-2.462,3.841-8.051-.688-9.14-5.894-1.417-9.075,7.638-9.32,12.029-.029.509.05,1.984.14,3.334a1.95,1.95,0,0,0-.6.042c-1.617-5.363-2.969-10.811-4.1-16.278,3.115-1.185,2.79-17.85.557-20.108C17.74-3.41,14.816,4.425,15.281,8.461,15.828,13.22,18.219,17.45,21,21.17c.3.393.218.378.259-.194a1.14,1.14,0,0,0,.307.624,72.434,72.434,0,0,0,.115,7.324,169.525,169.525,0,0,0,3.175,18.948q.513,2.272,1.137,4.5a36.977,36.977,0,0,0-7.568-4.316c-3.568-1.38-9.029-2.785-12.353.043a5.834,5.834,0,0,0-.208,8.733c2.958,2.978,8.055,2.6,11.848,2.092,1.715-.228,10.876-1.447,8.617-2.838a7.435,7.435,0,0,1,.915.379q.36,1.089.75,2.17c-.052.034-.1.071-.153.105.061-.031.1-.063.157-.094A84.537,84.537,0,0,0,38.569,78.931a19.879,19.879,0,0,0-4.828-1.022c-4.831-.355-14.731,3.9-9.028,10.012,5.468,5.856,13.137-1.136,18.931-2.348A273.561,273.561,0,0,0,63.3,107.418a1.558,1.558,0,0,0-.913.845c-2.7-1.2-5.533-2.958-7.991-3.347-3.547-.56-10.764-.634-13.25,2.645-3.059,4.032.6,6.985,4.492,7.523,5.643.781,12.812-2.332,18.091-4.458a1.777,1.777,0,0,0,1.658-.651c.117-.046.233-.09.347-.133C72.747,116.785,80,123.473,87.2,130.009h-.222a18.6,18.6,0,0,0-5.912-2.331c-4.862-.919-10.509-.628-14.224,3.049-3.7,3.661-4.757,9.782-.538,13.455,8.443,7.352,19.353-10.992,23.367-11.945,7.317,6.569,15.008,12.661,22.809,18.617a13.3,13.3,0,0,0-2.645-.4c-7.359-.317-24.077,9.562-14.627,17.923,8.235,7.286,16.522-8,22.562-13.515,7.347,5.547,14.73,11.051,21.927,16.795a20.034,20.034,0,0,0-11.392.67c-4.094,1.477-10.643,4.97-7.718,10.449,2.974,5.573,10.9,2.551,15,.517,2.238-1.109,6.655-4.688,10.613-6.305,11.516,9.785,21.619,20.7,29.519,33.763a120.977,120.977,0,0,1,11.693,26.035c1.84,5.8,5.376,15.524,5.173,23.212C194.667,244.524,188.5,226.391,182.168,212.988ZM21,29.766c-.613,0-2.912-6.215-3.636-7.135a20.724,20.724,0,0,0-8.2-5.945C4.129,14.508-2.268,17.674.8,23.966,3.248,28.989,9.881,30,15.626,30,17.588,30,19.447,29.882,21,29.766Z" transform="translate(309.921 188.474) rotate(3)" fill="#fee89e" opacity="0.496"/>
    <path id="Leaf_Top" data-name="Leaf Top" d="M-9.926,580.771C-2.6,565.4,7.844,552.123,19.882,540.305c-2.407-8.654-25.8-22.172-11.007-29.329,7.852-3.783,15.3,3.557,16.582,10.987.878,5.106-1.2,11.356-3.315,16.158q5.671-5.395,11.719-10.4c5.558-4.617,11.237-9.085,16.964-13.49-8.584-8.869-15.858-33.325-3.544-36.625,18.182-4.855,7.842,27.454,6.269,33.528a.975.975,0,0,1-.816-.355c.07.567.156,1.174.265,1.788,10.959-8.385,22.064-16.587,32.84-25.2-.891-.726-2.228-3.4-3.314-4.837a52.331,52.331,0,0,1-6.414-10.363c-2.584-5.9-4.883-15.223,2.951-18.209,8.52-3.254,11.928,7.329,11.658,13.522-.187,4.283-1.579,8.29-2.415,12.455-.261,1.3.165,7.237-1.5,4.605a12.45,12.45,0,0,1-.056,2.1q2.9-2.33,5.767-4.711a2.212,2.212,0,0,1-.123-.72,2.163,2.163,0,0,1,3.2-1.855q3.785-3.206,7.487-6.52c5.216-4.693,10.513-9.523,15.781-14.463-1.034-.977-.535-2.231-1.5-3.263s-2.923-1.671-4.064-2.64a28.516,28.516,0,0,1-6.795-9.255c-2.676-5.559-5.9-17.1,2.884-19.225,9.059-2.2,13.007,8.954,13.219,15.808a172.726,172.726,0,0,1-2.583,17.475c9.75-9.184,19.365-18.737,28.137-28.509-2.495-.153-9.3-5.584-10.66-7.04-3.312-3.551-8.466-11.287-2.139-14.91,5.626-3.213,12.064,2.2,14.131,7.24a68.484,68.484,0,0,1,1.215,11.83c3.636-4.149,7.116-8.331,10.371-12.539q3.255-4.2,6.136-8.628a4.053,4.053,0,0,1-1.139-1.233c-8.994-2-19.821-16.618-8.9-20.942,5.2-2.056,10.448,3.018,12.726,7.067.467.828,1.078,4.9,1.581,8.119a167.638,167.638,0,0,0,13.575-31.067,1.968,1.968,0,0,1-1.451-1.9c-4.273-2.716-7.643-4.968-10.465-9.911-1.753-3.07-4.836-10.036.866-11.393,7.42-1.767,11.424,9.522,11.733,15,.037.635-.063,2.472-.176,4.155a2.51,2.51,0,0,1,.76.053c2.037-6.686,3.739-13.477,5.168-20.294-3.92-1.478-3.513-22.253-.7-25.068,6.285-6.3,9.966,3.465,9.382,8.5-.689,5.933-3.7,11.206-7.2,15.843-.375.491-.275.472-.328-.242a1.416,1.416,0,0,1-.385.779,89.581,89.581,0,0,1-.146,9.13,209.671,209.671,0,0,1-4,23.621q-.647,2.834-1.432,5.612a46.662,46.662,0,0,1,9.527-5.38c4.492-1.72,11.367-3.472,15.551.054a7.225,7.225,0,0,1,.261,10.886c-3.724,3.712-10.139,3.237-14.915,2.609-2.159-.284-13.692-1.8-10.848-3.538a9.427,9.427,0,0,0-1.152.473q-.454,1.359-.944,2.705c.067.043.122.088.193.131-.076-.039-.13-.078-.2-.117a105.013,105.013,0,0,1-13.311,25.286,25.239,25.239,0,0,1,6.079-1.275c6.081-.443,18.545,4.866,11.365,12.482-6.884,7.3-16.538-1.417-23.833-2.928a342.545,342.545,0,0,1-24.745,27.234,1.958,1.958,0,0,1,1.149,1.053c3.395-1.49,6.966-3.687,10.06-4.172,4.465-.7,13.549-.79,16.681,3.3,3.85,5.026-.757,8.707-5.656,9.378-7.1.974-16.13-2.906-22.774-5.557a2.248,2.248,0,0,1-2.087-.812c-.147-.057-.294-.112-.437-.166-8.827,8.654-17.959,16.993-27.027,25.142h.28a23.558,23.558,0,0,1,7.443-2.906c6.12-1.145,13.231-.783,17.905,3.8,4.657,4.565,5.989,12.2.679,16.774-10.629,9.167-24.363-13.7-29.417-14.891C97.3,488.29,87.62,495.886,77.8,503.31a16.9,16.9,0,0,1,3.329-.493c9.266-.4,30.31,11.92,18.414,22.343-10.366,9.085-20.8-9.977-28.4-16.849-9.249,6.916-18.544,13.778-27.6,20.939a25.45,25.45,0,0,1,14.341.834c5.154,1.841,13.4,6.2,9.717,13.028-3.745,6.946-13.721,3.179-18.887.643-2.818-1.382-8.377-5.845-13.36-7.861-14.5,12.2-27.216,25.8-37.162,42.091a150.155,150.155,0,0,0-14.72,32.458c-2.317,7.233-6.767,19.353-6.511,28.938C-25.66,620.086-17.89,597.481-9.926,580.771ZM0,187.541a21.86,21.86,0,0,0,1,4A8.448,8.448,0,0,1,0,187.541Zm8-33.535a83.426,83.426,0,0,1,17.288-23.47c-1.4-5.019-14.961-12.859-6.384-17.011,4.555-2.194,8.875,2.063,9.617,6.373.509,2.961-.7,6.586-1.922,9.371q3.289-3.128,6.8-6.034c3.225-2.678,6.518-5.27,9.84-7.825-4.979-5.144-9.2-19.328-2.056-21.242,10.545-2.816,4.548,15.923,3.636,19.446a.566.566,0,0,1-.473-.207c.041.329.09.681.153,1.038,6.357-4.864,12.8-9.621,19.048-14.614a27.018,27.018,0,0,1-1.922-2.805,30.358,30.358,0,0,1-3.721-6.01c-1.5-3.424-2.832-8.829,1.712-10.562,4.942-1.887,6.917,4.251,6.761,7.843-.108,2.485-.916,4.808-1.4,7.224-.151.753.1,4.2-.87,2.671a7.325,7.325,0,0,1-.032,1.216q1.683-1.351,3.344-2.732a1.288,1.288,0,0,1-.071-.418A1.255,1.255,0,0,1,69.2,95.182q2.2-1.859,4.342-3.781c3.026-2.722,6.1-5.523,9.153-8.389-.6-.567-.311-1.294-.868-1.892s-1.7-.969-2.357-1.532a16.53,16.53,0,0,1-3.941-5.367C73.979,71,72.108,64.305,77.2,63.071c5.253-1.274,7.544,5.193,7.667,9.168a100.1,100.1,0,0,1-1.5,10.136c5.655-5.326,11.232-10.868,16.32-16.536-1.447-.088-5.4-3.238-6.183-4.082-1.921-2.06-4.91-6.547-1.24-8.648,3.262-1.864,7,1.274,8.2,4.2a39.661,39.661,0,0,1,.7,6.862c2.109-2.407,4.127-4.832,6.016-7.273q1.887-2.433,3.559-5a2.342,2.342,0,0,1-.661-.715c-5.216-1.157-11.5-9.638-5.164-12.146,3.014-1.193,6.06,1.75,7.381,4.1a30.025,30.025,0,0,1,.917,4.709,97.142,97.142,0,0,0,7.873-18.019,1.141,1.141,0,0,1-.841-1.1c-2.479-1.575-4.432-2.881-6.07-5.748-1.017-1.78-2.8-5.82.5-6.608,4.3-1.025,6.626,5.523,6.806,8.7.021.369-.037,1.435-.1,2.41a1.454,1.454,0,0,1,.441.031c1.181-3.878,2.168-7.817,3-11.771-2.273-.857-2.037-12.906-.407-14.54,3.645-3.656,5.781,2.01,5.442,4.928a19.277,19.277,0,0,1-4.175,9.189c-.217.284-.158.273-.189-.14a.82.82,0,0,1-.224.451,51.727,51.727,0,0,1-.085,5.3,121.52,121.52,0,0,1-2.317,13.7q-.375,1.644-.831,3.255a27.1,27.1,0,0,1,5.526-3.12c2.606-1,6.593-2.014,9.02.032a4.191,4.191,0,0,1,.151,6.314c-2.16,2.153-5.881,1.877-8.65,1.513-1.253-.165-7.942-1.047-6.292-2.052a5.375,5.375,0,0,0-.669.274q-.263.787-.547,1.569c.039.024.071.051.112.076-.044-.022-.076-.045-.114-.068a60.943,60.943,0,0,1-7.721,14.666,14.65,14.65,0,0,1,3.525-.74c3.528-.257,10.757,2.822,6.592,7.24-3.993,4.234-9.593-.822-13.823-1.7a198.561,198.561,0,0,1-14.353,15.8,1.136,1.136,0,0,1,.667.611c1.969-.864,4.041-2.138,5.836-2.42,2.589-.4,7.859-.458,9.674,1.912,2.233,2.915-.439,5.051-3.281,5.44-4.119.565-9.355-1.686-13.209-3.223a1.3,1.3,0,0,1-1.21-.471l-.254-.1C87.9,84.444,82.6,89.28,77.341,94.007H77.5a13.667,13.667,0,0,1,4.316-1.686c3.55-.664,7.674-.455,10.385,2.2s3.473,7.073.394,9.729c-6.165,5.316-14.131-7.948-17.062-8.636-5.342,4.749-10.958,9.155-16.654,13.461a9.732,9.732,0,0,1,1.931-.286c5.373-.229,17.58,6.913,10.68,12.959-6.013,5.269-12.064-5.787-16.475-9.772-5.365,4.01-10.755,7.991-16.01,12.144a14.766,14.766,0,0,1,8.318.484c2.99,1.068,7.771,3.594,5.636,7.556-2.172,4.029-7.958,1.844-10.955.373-1.633-.8-4.858-3.389-7.748-4.559a100.3,100.3,0,0,0-21.554,24.413,87.074,87.074,0,0,0-8.537,18.825C2.827,175.412.246,182.441.393,188-1.122,176.81,3.383,163.7,8,154.006ZM125.252,21.057c.437,0,2.08-4.44,2.6-5.1a14.8,14.8,0,0,1,5.857-4.246c3.6-1.555,8.166.707,5.975,5.2-1.75,3.587-6.487,4.309-10.59,4.309C127.689,21.225,126.361,21.14,125.252,21.057Z" transform="translate(81.081 11.219) rotate(-3)" fill="#fee89e" opacity="0.496"/>
  </g>
</svg>
