<svg id="Volume_Up" data-name="Volume Up" xmlns="http://www.w3.org/2000/svg" width="11" height="9" viewBox="0 0 11 9">
  <path id="Fill_1" data-name="Fill 1" d="M6.179,1.725A5.083,5.083,0,0,0,6.063.978,1.273,1.273,0,0,0,4.879,0a1.507,1.507,0,0,0-.868.36L2.281,1.808H1.376a1.35,1.35,0,0,0-1.3,1.255,13.952,13.952,0,0,0,0,2.839,1.322,1.322,0,0,0,1.3,1.289h.905l1.763,1.47A1.347,1.347,0,0,0,4.838,9h.052a1.27,1.27,0,0,0,1.175-.99,4.522,4.522,0,0,0,.112-.726L6.2,7.054a48.249,48.249,0,0,0,0-5.108Z" transform="translate(0 0)" fill="#f07904"/>
  <path id="Fill_4" data-name="Fill 4" d="M.835.2A.453.453,0,0,0,.2.084.478.478,0,0,0,.082.737,3.978,3.978,0,0,1,.7,2.954,3.979,3.979,0,0,1,.082,5.171.478.478,0,0,0,.2,5.825a.452.452,0,0,0,.639-.118,4.938,4.938,0,0,0,.786-2.753A4.938,4.938,0,0,0,.835.2" transform="translate(7.368 1.546)" fill="#f07904" opacity="0.4"/>
  <path id="Fill_6" data-name="Fill 6" d="M.835.2A.453.453,0,0,0,.2.084.479.479,0,0,0,.081.738,6.7,6.7,0,0,1,1.134,4.473,6.7,6.7,0,0,1,.081,8.209.478.478,0,0,0,.2,8.863a.451.451,0,0,0,.261.084.456.456,0,0,0,.377-.2A7.659,7.659,0,0,0,2.051,4.473,7.659,7.659,0,0,0,.835.2" transform="translate(8.949 0.027)" fill="#f07904" opacity="0.4"/>
</svg>
