<svg xmlns="http://www.w3.org/2000/svg" width="122.644" height="113.85" viewBox="0 0 122.644 113.85">
  <path id="Leaf_Bottom" data-name="Leaf Bottom" d="M0,0C4.018,8.612,9.333,12.066,15.938,18.689,14.617,23.54,1.784,31.116,9.9,35.128c4.308,2.12,8.4-1.994,9.1-6.158.483-2.862-.659-6.364-1.818-9.056q3.112,3.025,6.429,5.832c3.05,2.587,6.166,5.092,9.308,7.561-4.71,4.97-8.7,18.677-1.944,20.526,9.975,2.72,4.3-15.387,3.439-18.791a.532.532,0,0,0-.448.2c.039-.318.085-.658.146-1,6.013,4.7,12.106,9.3,18.018,14.12a26.254,26.254,0,0,0-1.818,2.711,29.439,29.439,0,0,0-3.519,5.807c-1.417,3.308-2.679,8.532,1.619,10.205,4.675,1.824,6.544-4.107,6.4-7.578a46.524,46.524,0,0,0-1.326-6.98c-.143-.729.091-4.057-.823-2.582a7.11,7.11,0,0,0-.031-1.175q1.593,1.307,3.164,2.64a1.263,1.263,0,0,0-.068.4,1.187,1.187,0,0,0,1.756,1.04q2.076,1.8,4.108,3.654c2.862,2.63,5.768,5.337,8.659,8.106-.568.548-.294,1.251-.821,1.829s-1.6.937-2.23,1.48a15.952,15.952,0,0,0-3.728,5.186c-1.467,3.116-3.238,9.582,1.583,10.774,4.97,1.231,7.136-5.018,7.253-8.859a98.872,98.872,0,0,0-1.417-9.794c5.349,5.147,10.624,10.5,15.437,15.979-1.368.085-5.1,3.129-5.848,3.945-1.817,1.991-4.645,6.325-1.173,8.356,3.086,1.8,6.619-1.231,7.752-4.057a39.091,39.091,0,0,0,.667-6.63c2,2.325,3.9,4.669,5.69,7.027q1.786,2.35,3.366,4.835a2.252,2.252,0,0,0-.624.691c-4.934,1.119-10.875,9.314-4.885,11.738,2.852,1.152,5.732-1.691,6.982-3.961a29.542,29.542,0,0,0,.867-4.55c3.075,5.5,5.455,9.2,7.391,15.25h2.367l-.629-2.472q-.355-1.587-.785-3.145a25.406,25.406,0,0,0,5.227,3.015c2.465.965,6.237,1.947,8.532-.03a4.108,4.108,0,0,0,.144-6.1c-2.044-2.08-5.564-1.814-8.183-1.462-1.185.16-7.512,1.011-5.952,1.984a5.077,5.077,0,0,1-.633-.266q-.249-.76-.518-1.516c.036-.024.067-.049.106-.074-.042.022-.072.044-.109.066a59.3,59.3,0,0,0-7.3-14.172,13.556,13.556,0,0,0,3.335.714c3.337.249,10.175-2.727,6.236-6.995-3.777-4.091-9.074.793-13.076,1.641A190.465,190.465,0,0,0,81.684,69.773a1.083,1.083,0,0,0,.631-.59c1.862.834,3.822,2.066,5.52,2.338,2.45.391,7.434.443,9.152-1.848,2.112-2.817-.415-4.88-3.1-5.256-3.9-.546-8.85,1.629-12.5,3.114a1.221,1.221,0,0,0-1.145.455L80,68.078c-4.844-4.851-9.853-9.524-14.828-14.091h.153a12.793,12.793,0,0,0,4.084,1.63c3.357.641,7.259.438,9.823-2.131s3.285-6.834.372-9.4c-5.832-5.137-13.366,7.68-16.139,8.346-5.054-4.59-10.367-8.847-15.754-13.008a9.056,9.056,0,0,0,1.827.277c5.083.222,16.629-6.68,10.1-12.523-5.687-5.091-11.412,5.592-15.583,9.443C38.986,32.745,33.887,28.9,28.917,24.886a13.692,13.692,0,0,0,7.868-.468c2.828-1.032,7.351-3.473,5.331-7.3-2.054-3.893-7.529-1.781-10.363-.361-1.545.775-4.6,3.276-7.33,4.406C16.469,14.325,9.669,9.128,4.212,0Z" transform="translate(122.644 113.85) rotate(180)" fill="#fee89e" opacity="0.7"/>
</svg>
