<svg id="Iconly_Bulk_Document" data-name="Iconly/Bulk/Document" xmlns="http://www.w3.org/2000/svg" width="22.5" height="25" viewBox="0 0 22.5 25">
  <g id="Document">
    <path id="Path" d="M16.489,0H6.012C2.213,0,0,2.225,0,6.037V18.95C0,22.825,2.213,25,6.012,25H16.489c3.861,0,6.011-2.175,6.011-6.05V6.037C22.5,2.225,20.35,0,16.489,0" fill="#726d61" opacity="0.4"/>
    <path id="Combined_Shape" data-name="Combined Shape" d="M.149,12.875a1,1,0,0,1,0-1.05.982.982,0,0,1,.938-.462h9.8a.987.987,0,0,1,0,1.962h-9.8a.915.915,0,0,1-.122.008A.979.979,0,0,1,.149,12.875Zm.938-5.262a.976.976,0,0,1,0-1.952h9.8a.976.976,0,0,1,0,1.952Zm0-5.651a.975.975,0,1,1,0-1.95V0H4.824a.981.981,0,0,1,0,1.962Z" transform="translate(5.263 5.813)" fill="#726d61"/>
  </g>
</svg>
