<svg width="48" height="48" viewBox="0 0 48 48" fill="none" xmlns="http://www.w3.org/2000/svg">
<path d="M0.630696 30.8212C-1.86927 23.4147 3.38066 13.0959 10.7734 8.27809C18.1662 3.4243 27.7375 4.10743 35.6659 9.35671C43.5587 14.606 49.8086 24.4214 47.5229 31.5044C45.2372 38.5873 34.4517 42.9377 23.9518 42.8658C13.4162 42.758 3.16637 38.2637 0.630696 30.8212Z" fill="#FEF3CE"/>
<path d="M11.12 22.632C11.608 22.768 11.984 23.016 12.248 23.376C12.52 23.736 12.656 24.176 12.656 24.696C12.656 25.416 12.396 25.98 11.876 26.388C11.364 26.796 10.656 27 9.752 27H6.656C6.424 27 6.24 26.936 6.104 26.808C5.976 26.68 5.912 26.5 5.912 26.268V19.272C5.912 19.04 5.976 18.86 6.104 18.732C6.24 18.604 6.424 18.54 6.656 18.54H9.632C10.512 18.54 11.2 18.736 11.696 19.128C12.2 19.512 12.452 20.052 12.452 20.748C12.452 21.196 12.332 21.584 12.092 21.912C11.86 22.24 11.536 22.48 11.12 22.632ZM7.424 22.104H9.38C10.444 22.104 10.976 21.708 10.976 20.916C10.976 20.516 10.844 20.22 10.58 20.028C10.316 19.836 9.916 19.74 9.38 19.74H7.424V22.104ZM9.584 25.8C10.144 25.8 10.552 25.7 10.808 25.5C11.064 25.3 11.192 24.988 11.192 24.564C11.192 24.14 11.06 23.824 10.796 23.616C10.54 23.408 10.136 23.304 9.584 23.304H7.424V25.8H9.584ZM14.7154 27.072C14.4994 27.072 14.3194 27.012 14.1754 26.892C14.0394 26.764 13.9714 26.584 13.9714 26.352V19.188C13.9714 18.956 14.0394 18.78 14.1754 18.66C14.3194 18.54 14.4994 18.48 14.7154 18.48C14.9314 18.48 15.1114 18.54 15.2554 18.66C15.3994 18.78 15.4714 18.956 15.4714 19.188V26.352C15.4714 26.584 15.3994 26.764 15.2554 26.892C15.1114 27.012 14.9314 27.072 14.7154 27.072ZM19.6943 27.096C19.0943 27.096 18.5663 26.972 18.1103 26.724C17.6623 26.476 17.3143 26.12 17.0663 25.656C16.8183 25.192 16.6943 24.652 16.6943 24.036C16.6943 23.42 16.8183 22.884 17.0663 22.428C17.3143 21.964 17.6623 21.608 18.1103 21.36C18.5663 21.112 19.0943 20.988 19.6943 20.988C20.2943 20.988 20.8183 21.112 21.2663 21.36C21.7223 21.608 22.0703 21.964 22.3103 22.428C22.5583 22.884 22.6823 23.42 22.6823 24.036C22.6823 24.652 22.5583 25.192 22.3103 25.656C22.0703 26.12 21.7223 26.476 21.2663 26.724C20.8183 26.972 20.2943 27.096 19.6943 27.096ZM19.6823 25.932C20.1703 25.932 20.5423 25.772 20.7983 25.452C21.0543 25.132 21.1823 24.66 21.1823 24.036C21.1823 23.42 21.0543 22.952 20.7983 22.632C20.5423 22.304 20.1743 22.14 19.6943 22.14C19.2143 22.14 18.8423 22.304 18.5783 22.632C18.3223 22.952 18.1943 23.42 18.1943 24.036C18.1943 24.66 18.3223 25.132 18.5783 25.452C18.8343 25.772 19.2023 25.932 19.6823 25.932ZM26.5966 27.096C25.9966 27.096 25.4686 26.972 25.0126 26.724C24.5646 26.476 24.2166 26.12 23.9686 25.656C23.7206 25.192 23.5966 24.652 23.5966 24.036C23.5966 23.42 23.7206 22.884 23.9686 22.428C24.2166 21.964 24.5646 21.608 25.0126 21.36C25.4686 21.112 25.9966 20.988 26.5966 20.988C27.1966 20.988 27.7206 21.112 28.1686 21.36C28.6246 21.608 28.9726 21.964 29.2126 22.428C29.4606 22.884 29.5846 23.42 29.5846 24.036C29.5846 24.652 29.4606 25.192 29.2126 25.656C28.9726 26.12 28.6246 26.476 28.1686 26.724C27.7206 26.972 27.1966 27.096 26.5966 27.096ZM26.5846 25.932C27.0726 25.932 27.4446 25.772 27.7006 25.452C27.9566 25.132 28.0846 24.66 28.0846 24.036C28.0846 23.42 27.9566 22.952 27.7006 22.632C27.4446 22.304 27.0766 22.14 26.5966 22.14C26.1166 22.14 25.7446 22.304 25.4806 22.632C25.2246 22.952 25.0966 23.42 25.0966 24.036C25.0966 24.66 25.2246 25.132 25.4806 25.452C25.7366 25.772 26.1046 25.932 26.5846 25.932ZM37.795 20.988C38.435 20.988 38.923 21.18 39.259 21.564C39.603 21.94 39.775 22.552 39.775 23.4V26.352C39.775 26.584 39.703 26.764 39.559 26.892C39.423 27.012 39.243 27.072 39.019 27.072C38.803 27.072 38.623 27.012 38.479 26.892C38.343 26.764 38.275 26.584 38.275 26.352V23.4C38.275 22.96 38.195 22.648 38.035 22.464C37.883 22.272 37.647 22.176 37.327 22.176C36.935 22.176 36.623 22.312 36.391 22.584C36.159 22.848 36.043 23.212 36.043 23.676V26.352C36.043 26.584 35.971 26.764 35.827 26.892C35.691 27.012 35.515 27.072 35.299 27.072C35.083 27.072 34.903 27.012 34.759 26.892C34.615 26.764 34.543 26.584 34.543 26.352V23.4C34.543 22.96 34.463 22.648 34.303 22.464C34.151 22.272 33.915 22.176 33.595 22.176C33.203 22.176 32.891 22.312 32.659 22.584C32.435 22.848 32.323 23.212 32.323 23.676V26.352C32.323 26.584 32.251 26.764 32.107 26.892C31.963 27.012 31.783 27.072 31.567 27.072C31.351 27.072 31.171 27.012 31.027 26.892C30.891 26.764 30.823 26.584 30.823 26.352V21.708C30.823 21.484 30.895 21.312 31.039 21.192C31.183 21.072 31.363 21.012 31.579 21.012C31.787 21.012 31.955 21.072 32.083 21.192C32.219 21.304 32.287 21.468 32.287 21.684V21.972C32.471 21.652 32.715 21.408 33.019 21.24C33.331 21.072 33.687 20.988 34.087 20.988C34.967 20.988 35.555 21.356 35.851 22.092C36.027 21.756 36.287 21.488 36.631 21.288C36.975 21.088 37.363 20.988 37.795 20.988Z" fill="#F06800"/>
</svg>
